HIERARCHY
ROOT root
{
	OFFSET	0	13.1	24.9
	CHANNELS 6  Xposition Yposition Zposition Xrotation Yrotation Zrotation
	JOINT spine_1
	{
		OFFSET	0	9.99999	0
		CHANNELS 3  Xrotation Yrotation Zrotation
		JOINT spine_2
		{
			OFFSET	0	112	-10
			CHANNELS 3  Xrotation Yrotation Zrotation
			JOINT spine_3
			{
				OFFSET	0	206.5	19.3
				CHANNELS 3  Xrotation Yrotation Zrotation
				JOINT spine_4
				{
					OFFSET	0	110.4	14.6
					CHANNELS 3  Xrotation Yrotation Zrotation
					JOINT neck_1
					{
						OFFSET	0	71.8	-50.3
						CHANNELS 3  Xrotation Yrotation Zrotation
						JOINT neck_2
						{
							OFFSET	0	86.2	-25.8
							CHANNELS 3  Xrotation Yrotation Zrotation
							JOINT head_ee
							{
								OFFSET	0	179.8	-8.7
								CHANNELS 3  Xrotation Yrotation Zrotation
								End Site
								{
									OFFSET	1	0	0
								}
							}
						}
					}
					JOINT left_clavicle
					{
						OFFSET	-43.2	22.4	-70.8
						CHANNELS 3  Xrotation Yrotation Zrotation
						JOINT left_shoulder
						{
							OFFSET	-93.9	-5.79999	48.7
							CHANNELS 3  Xrotation Yrotation Zrotation
							JOINT left_elbow
							{
								OFFSET	-291.4	-30.8	15.2
								CHANNELS 3  Xrotation Yrotation Zrotation
								JOINT left_lowarm_twist
								{
									OFFSET	-110.7	-3.89999	13.6
									CHANNELS 3  Xrotation Yrotation Zrotation
									JOINT left_hand
									{
										OFFSET	-110.7	-3.89999	13.6
										CHANNELS 3  Xrotation Yrotation Zrotation
										JOINT left_ee
										{
											OFFSET	-80.8	-5.10001	12.1
											CHANNELS 3  Xrotation Yrotation Zrotation
											End Site
											{
												OFFSET	1	0	0
											}
										}
									}
								}
							}
						}
					}
					JOINT right_clavicle
					{
						OFFSET	43.2	22.4	-70.8
						CHANNELS 3  Xrotation Yrotation Zrotation
						JOINT right_shoulder
						{
							OFFSET	93.9	-5.79999	48.7
							CHANNELS 3  Xrotation Yrotation Zrotation
							JOINT right_elbow
							{
								OFFSET	291.4	-30.8	15.2
								CHANNELS 3  Xrotation Yrotation Zrotation
								JOINT right_lowarm_twist
								{
									OFFSET	110.7	-3.89999	13.6
									CHANNELS 3  Xrotation Yrotation Zrotation
									JOINT right_hand
									{
										OFFSET	110.7	-3.89999	13.6
										CHANNELS 3  Xrotation Yrotation Zrotation
										JOINT right_ee
										{
											OFFSET	80.8	-5.10001	12.1
											CHANNELS 3  Xrotation Yrotation Zrotation
											End Site
											{
												OFFSET	1	0	0
											}
										}
									}
								}
							}
						}
					}
				}
			}
		}
	}
	JOINT left_hip
	{
		OFFSET	-82.8	-127.5	0.300001
		CHANNELS 3  Xrotation Yrotation Zrotation
		JOINT left_knee
		{
			OFFSET	-28.2	-396.7	2.2
			CHANNELS 3  Xrotation Yrotation Zrotation
			JOINT left_ankle
			{
				OFFSET	-11.7	-411.3	35.4
				CHANNELS 3  Xrotation Yrotation Zrotation
				JOINT left_toes
				{
					OFFSET	0	-60	-88.6
					CHANNELS 3  Xrotation Yrotation Zrotation
					JOINT left_foot_ee
					{
						OFFSET	-22.5	-16.5	-42.2
						CHANNELS 3  Xrotation Yrotation Zrotation
						End Site
						{
							OFFSET	1	0	0
						}
					}
				}
			}
		}
	}
	JOINT right_hip
	{
		OFFSET	82.8	-127.5	0.300001
		CHANNELS 3  Xrotation Yrotation Zrotation
		JOINT right_knee
		{
			OFFSET	28.2	-396.7	2.2
			CHANNELS 3  Xrotation Yrotation Zrotation
			JOINT right_ankle
			{
				OFFSET	11.7	-411.3	35.4
				CHANNELS 3  Xrotation Yrotation Zrotation
				JOINT right_toes
				{
					OFFSET	0	-60	-88.6
					CHANNELS 3  Xrotation Yrotation Zrotation
					JOINT right_foot_ee
					{
						OFFSET	22.5	-16.5	-42.2
						CHANNELS 3  Xrotation Yrotation Zrotation
						End Site
						{
							OFFSET	1	0	0
						}
					}
				}
			}
		}
	}
}
MOTION
Frames: 13
Frame Time: 0.02
711.796 726.481 -1203.39 -163.796 -64.2503 -168.125 0.514964 0.310069 0.280562 0.51496 0.291588 0.299723 0.516524 0.22527 0.352294 0.516459 0.278081 0.312296 1.84186 7.2222 -3.20036 2.12715 15.3827 -2.94794 -0.0 0.0 -0.0 10.8375 25.5915 17.6379 -37.8572 -45.5304 43.4794 0.628725 -17.2994 0.0956446 5.24261 0.15499 -0.651492 -2.87339 17.1624 -10.5886 -0.0 0.0 -0.0 9.97685 -6.11212 -19.1957 -73.8665 60.6093 1.65027 1.93438 43.7736 -0.777162 63.8752 2.13081 7.45356 0.810886 1.46784 -4.82014 0.0 0.0 0.0 14.9144 -18.1885 4.27619 -12.3261 0.308137 1.86289 21.366 27.7134 -3.09809 -4.03713 0.0 0.0 -0.0 0.0 -0.0 11.512 2.87816 7.52299 -17.9646 -0.314312 -2.72763 0.237513 -30.4953 0.0374903 14.1857 -0.0 -0.0 0.0 0.0 0.0 
718.855 724.668 -1206.94 -163.061 -65.6009 -167.504 0.536339 0.111231 0.207873 0.536358 0.0977785 0.214529 0.536739 0.0526612 0.229805 0.536676 0.0882935 0.218604 0.265876 6.47143 -0.681311 0.381913 12.0723 -0.0796501 -0.0 0.0 -0.0 10.3918 25.671 16.9742 -35.0193 -48.1123 43.4153 0.679717 -18.609 0.111364 5.3745 0.158118 -0.66805 -2.56523 14.9436 -9.83761 -0.0 0.0 -0.0 9.02141 -6.35624 -17.3279 -72.4278 62.1562 0.902431 1.93774 43.8232 -0.779486 65.8919 2.3256 7.62373 0.599869 3.29552 -2.64039 0.0 0.0 0.0 15.0354 -20.3854 5.04498 -12.8294 0.312148 1.94001 22.3661 27.3228 -3.22117 -4.24804 0.0 0.0 -0.0 0.0 -0.0 12.0502 2.41063 8.64316 -20.7066 -0.28657 -3.1474 -0.410436 -28.8264 -0.0641433 19.5651 -0.0 -0.0 0.0 0.0 0.0 
730.053 722.442 -1211.62 -164.26 -65.1917 -168.528 0.620479 -0.0617006 0.237088 0.620507 -0.076662 0.232681 0.620196 -0.121559 0.212699 0.620143 -0.0864419 0.229228 0.198575 4.41965 0.377083 0.238857 7.55581 0.862689 -0.0 0.0 -0.0 10.4279 25.8718 16.9832 -33.0982 -49.1998 43.0295 0.633992 -17.4356 0.0972168 5.33713 0.157235 -0.663358 -2.99791 18.836 -10.4421 -0.0 0.0 -0.0 9.59141 -8.04271 -18.2833 -72.1986 63.2502 -0.258679 1.70667 40.2089 -0.624742 63.0259 2.0506 7.37988 0.860912 3.38569 -4.36162 0.0 0.0 0.0 14.3685 -18.098 5.09763 -13.7807 0.317876 2.08585 25.3869 25.7852 -3.57253 -4.66317 0.0 0.0 -0.0 0.0 -0.0 12.6465 1.16903 8.16063 -20.8966 -0.283903 -3.17643 -7.13228 -29.5621 -1.13358 18.3337 -0.0 -0.0 0.0 0.0 0.0 
735.578 724.976 -1210.95 -164.693 -65.8882 -168.777 0.610102 -0.0993748 0.18536 0.610115 -0.110968 0.178661 0.609763 -0.144421 0.152892 0.60975 -0.118462 0.173782 0.348922 4.71934 -0.725114 0.415573 8.98553 -0.306603 -0.0 0.0 -0.0 10.6426 24.7907 17.5292 -33.3542 -49.0334 41.5267 0.673012 -18.438 0.109234 6.79035 0.18928 -0.846224 -2.50264 19.2011 -7.23865 -0.0 0.0 -0.0 10.1669 -9.48377 -19.2288 -74.0809 65.6746 0.441447 1.27654 32.3061 -0.369749 61.9642 1.95188 7.28611 1.21134 5.85857 -5.69581 0.0 0.0 0.0 13.6516 -18.2772 4.71582 -13.8528 0.318211 2.09691 25.7501 23.6289 -3.57341 -6.90122 0.0 0.0 -0.0 0.0 -0.0 12.6352 1.29614 7.74006 -21.9952 -0.266601 -3.34411 -5.66005 -29.8827 -0.899475 19.6545 -0.0 -0.0 0.0 0.0 0.0 
749.975 720.872 -1207.71 -165.477 -68.0484 -170.052 0.640329 -0.288236 0.37276 0.640352 -0.311371 0.353663 0.638389 -0.375605 0.284518 0.638424 -0.325958 0.340267 0.309268 4.16744 0.416188 0.344817 7.06836 0.874007 -0.0 0.0 -0.0 10.1113 23.916 16.9197 -31.6449 -49.7457 41.52 0.680397 -18.6264 0.111581 6.72257 0.187889 -0.837678 -2.2022 13.5615 -8.24812 -0.0 0.0 -0.0 10.2103 -9.87104 -19.2669 -82.5378 65.3597 4.27428 1.12382 29.1041 -0.291738 59.7898 1.75525 7.08851 1.71039 10.1879 -7.23297 0.0 0.0 0.0 13.1096 -18.0977 5.3684 -16.0754 0.321725 2.43788 30.8644 19.7231 -4.09524 -10.3047 0.0 0.0 -0.0 0.0 -0.0 20.1627 3.45916 9.83594 -39.0396 0.406802 -5.86338 -11.14 -29.8569 -1.78346 15.8156 -0.0 -0.0 0.0 0.0 0.0 
756.239 717.887 -1214.34 -165.44 -68.5623 -169.921 0.418588 -0.256529 0.257662 0.418583 -0.272405 0.240816 0.417406 -0.315629 0.180486 0.417473 -0.283164 0.228068 -0.127618 3.44873 -1.26789 -0.080799 7.18549 -0.992548 -0.0 0.0 -0.0 9.48092 22.4993 16.2271 -28.2267 -51.4729 42.0183 0.863316 -23.1543 0.176858 8.72886 0.224785 -1.09129 -1.67602 14.2926 -4.58658 -0.0 0.0 -0.0 9.85311 -15.9958 -17.8367 -77.5192 64.3941 -4.03336 0.953152 25.2745 -0.21371 58.5809 1.64923 6.97549 1.84989 14.4325 -6.3012 0.0 0.0 0.0 13.2043 -17.9344 5.87659 -16.2172 0.3215 2.45963 31.4912 17.2066 -4.12388 -15.8497 0.0 0.0 -0.0 0.0 -0.0 25.0014 6.03554 10.3329 -48.6236 1.10442 -7.16028 -9.15555 -29.1299 -1.45514 15.4822 -0.0 -0.0 0.0 0.0 0.0 
767.18 720.862 -1221.05 -166.054 -68.6374 -170.095 0.357563 -0.127275 -0.137572 0.357566 -0.118263 -0.145392 0.357875 -0.0861055 -0.166466 0.357854 -0.111315 -0.150778 1.25289 2.8865 -1.66024 1.30386 6.48016 -1.5519 -0.0 0.0 -0.0 9.83172 20.8341 17.0494 -27.4312 -54.5867 43.1133 0.751639 -20.4223 0.135394 8.27152 0.217156 -1.03337 -2.20515 10.6638 -9.70686 -0.0 0.0 -0.0 9.16649 -17.0722 -16.5299 -89.7502 63.2072 1.45983 0.472957 13.1861 -0.0546654 55.6433 1.40178 6.69181 2.33984 15.1733 -9.27942 0.0 0.0 0.0 13.3179 -16.9313 6.29344 -18.2948 0.312035 2.77825 31.065 15.6813 -4.05804 -16.02 0.0 0.0 -0.0 0.0 -0.0 26.3751 12.6556 7.03913 -54.6075 1.64668 -7.90517 -10.3332 -29.2681 -1.64625 12.4153 -0.0 -0.0 0.0 0.0 0.0 
778.913 715.964 -1226.45 -165.104 -68.9662 -169.514 0.442752 -0.0804321 -0.00747329 0.442748 -0.0797935 -0.0125763 0.442765 -0.0755904 -0.0284827 0.442773 -0.07914 -0.0161872 2.37056 2.40457 -1.77293 2.41855 5.71046 -1.7755 -0.0 0.0 -0.0 10.1976 19.0819 17.9344 -24.3775 -53.1226 44.3872 0.755172 -20.5103 0.136629 8.99281 0.228977 -1.12475 -2.33459 10.2612 -10.7488 -0.0 0.0 -0.0 7.82251 -18.8412 -14.1435 -90.0341 65.8475 0.853731 0.332772 9.36097 -0.0272448 53.5488 1.23442 6.48206 2.64429 17.9343 -10.0426 0.0 0.0 0.0 13.5406 -16.052 7.24779 -18.9691 0.306481 2.88156 32.2997 15.1509 -4.18313 -16.487 0.0 0.0 -0.0 0.0 -0.0 28.2529 13.9952 6.45076 -59.1401 2.10785 -8.43003 -9.30555 -30.2663 -1.4906 11.4295 -0.0 -0.0 0.0 0.0 0.0 
786.645 712.832 -1229.03 -162.554 -68.755 -167.297 0.798448 -0.100024 0.0873485 0.798446 -0.10538 0.0808067 0.798293 -0.119206 0.0585198 0.798305 -0.108468 0.0766117 3.0052 1.97733 -2.33316 3.06121 5.43575 -2.46315 -0.0 0.0 -0.0 10.2725 17.6786 18.2924 -22.9457 -53.6585 43.8966 0.769653 -20.87 0.141746 9.5487 0.237301 -1.19527 -2.14114 8.93086 -10.1438 -0.0 0.0 -0.0 7.20959 -20.5906 -13.0243 -86.3505 67.863 -1.89985 0.203517 5.75705 -0.0102332 52.4416 1.14909 6.36878 2.60014 17.8922 -9.76483 0.0 0.0 0.0 14.1191 -15.7866 7.94812 -19.0047 0.306153 2.88702 33.9714 15.0957 -4.3556 -16.9841 0.0 0.0 -0.0 0.0 -0.0 30.4395 15.5455 5.69331 -59.0826 2.10174 -8.42359 -10.555 -30.2334 -1.69299 12.3874 -0.0 -0.0 0.0 0.0 0.0 
790.377 718.387 -1224.53 -161.231 -66.7235 -165.792 1.14242 -0.0363546 0.204854 1.14245 -0.0493164 0.202126 1.14227 -0.0869465 0.189017 1.14223 -0.0560037 0.200376 3.55005 1.77705 -3.07367 3.62714 5.72321 -3.33819 -0.0 0.0 -0.0 10.0836 15.3124 18.333 -23.8792 -53.4504 40.1238 0.807878 -21.8111 0.155656 10.2752 0.247148 -1.28754 -1.76184 7.86345 -8.1726 -0.0 0.0 -0.0 8.11654 -21.473 -14.3069 -87.2192 63.9781 -2.11713 0.39371 11.0362 -0.0380356 50.8508 1.03039 6.20321 3.04879 18.63 -12.4404 0.0 0.0 0.0 14.6576 -14.5604 7.16685 -19.1782 0.304512 2.91358 31.381 15.7955 -4.09337 -17.917 0.0 0.0 -0.0 0.0 -0.0 33.8484 16.8631 4.12064 -58.6392 2.05485 -8.37382 -12.4618 -29.7968 -1.99714 11.9146 -0.0 -0.0 0.0 0.0 0.0 
809.364 719.727 -1224.21 -162.414 -66.6019 -166.514 1.37278 0.106735 0.0599106 1.37278 0.102706 0.0665811 1.3729 0.0884706 0.0845848 1.3729 0.100719 0.069551 3.53966 1.41439 -3.55129 3.62458 5.50444 -3.89792 -0.0 0.0 -0.0 10.6 15.8954 19.1434 -22.3423 -53.9229 42.5235 0.770221 -20.884 0.141948 10.0837 0.244667 -1.26321 -2.24835 5.63535 -12.4706 -0.0 0.0 -0.0 8.79201 -24.4782 -14.8894 -87.3669 63.484 -3.65033 0.216707 6.12741 -0.0115987 50.517 1.00607 6.16806 2.53971 17.9754 -9.31795 0.0 0.0 0.0 12.8985 -13.0444 7.10881 -19.52 0.301041 2.96591 31.9659 14.6417 -4.14215 -17.4383 0.0 0.0 -0.0 0.0 -0.0 38.1897 18.855 3.19877 -56.074 1.7913 -8.07891 -9.32294 -28.3764 -1.47496 11.3334 -0.0 -0.0 0.0 0.0 0.0 
807.15 720.057 -1219.49 -159.564 -64.0306 -163.39 1.50561 0.171536 0.356134 1.50567 0.148527 0.366327 1.50664 0.0784323 0.387433 1.50646 0.138635 0.370184 3.40103 1.90817 -2.44324 3.46018 5.40926 -2.61248 -0.0 0.0 -0.0 10.4928 14.755 19.1337 -22.6408 -53.2633 36.9318 0.809645 -21.8543 0.156314 9.09454 0.230551 -1.13765 -1.80878 2.69374 -10.9175 -0.0 0.0 -0.0 8.7334 -25.41 -14.6599 -86.6621 64.5744 -4.24358 0.374653 10.5142 -0.0344728 50.1565 0.980038 6.12993 2.14263 18.7846 -6.27473 0.0 0.0 0.0 13.0815 -16.4126 6.04654 -15.8818 0.321945 2.40818 31.0415 15.5516 -4.05397 -18.7292 0.0 0.0 -0.0 0.0 -0.0 41.3044 18.2024 1.43097 -49.295 1.16133 -7.24659 -12.9971 -25.0944 -2.02681 11.1591 -0.0 -0.0 0.0 0.0 0.0 
810.97 717.378 -1212.44 -160.046 -61.7168 -163.759 1.75385 0.235333 0.787244 1.75418 0.184763 0.800622 1.7568 0.0375549 0.820805 1.7559 0.16671 0.804575 3.67588 2.71897 -0.368214 3.70478 5.02972 -0.241229 -0.0 0.0 -0.0 10.3141 13.5913 18.9849 -21.7885 -53.0759 35.1359 0.780347 -21.1345 0.145578 10.4017 0.248743 -1.30362 -1.92148 0.170082 -12.8642 -0.0 0.0 -0.0 8.44528 -24.1299 -14.442 -83.9211 64.6696 -8.02163 0.511361 14.215 -0.0637616 49.0799 0.903733 6.01513 2.15204 16.4762 -7.4091 0.0 0.0 0.0 13.1675 -13.3445 5.11622 -15.4872 0.322082 2.34764 29.4125 17.4741 -3.89974 -19.068 0.0 0.0 -0.0 0.0 -0.0 42.5466 14.6744 -1.13043 -44.2027 0.755559 -6.57635 -11.2233 -28.7113 -1.78352 11.1814 -0.0 -0.0 0.0 0.0 0.0 
